<svg xmlns="http://www.w3.org/2000/svg" viewBox="0 0 24 24" fill="currentColor" class="w-full h-full text-slate-500">
  <path d="M4.5 4.5a3 3 0 00-3 3v9a3 3 0 003 3h15a3 3 0 003-3v-9a3 3 0 00-3-3h-15zm11.25 9.75l-3.75-2.25v4.5l3.75-2.25z" />
  <path fill-rule="evenodd" d="M1.5 7.5a3 3 0 013-3h15a3 3 0 013 3v9a3 3 0 01-3 3h-15a3 3 0 01-3-3v-9zm3 .75a1.5 1.5 0 011.5-1.5h10.5a1.5 1.5 0 011.5 1.5v2.443c.572.235 1.072.559 1.5.942V7.5a3 3 0 00-3-3h-10.5a3 3 0 00-3 3v9a3 3 0 003 3h10.5a3 3 0 003-3v-.693c-.428.383-.928.707-1.5.942V16.5a1.5 1.5 0 01-1.5 1.5h-10.5a1.5 1.5 0 01-1.5-1.5v-8.25z" clip-rule="evenodd" />
</svg> 