<svg xmlns="http://www.w3.org/2000/svg" viewBox="0 0 24 24" fill="currentColor" class="w-full h-full text-slate-500">
  <path fill-rule="evenodd" d="M1.5 6a2.25 2.25 0 012.25-2.25h16.5A2.25 2.25 0 0122.5 6v12a2.25 2.25 0 01-2.25 2.25H3.75A2.25 2.25 0 011.5 18V6zM3 16.06V18c0 .414.336.75.75.75h16.5a.75.75 0 0021-18v-1.94l-2.69-2.689a1.5 1.5 0 00-2.12 0l-.88.879.97.97a.75.75 0 11-1.06 1.06l-5.16-5.159a1.5 1.5 0 00-2.12 0L3 16.061z" clip-rule="evenodd" />
  <path d="M15.75 6a.75.75 0 00-1.5 0v4.59L11.03 7.22a.75.75 0 00-1.06 1.06L12.19 10.5H9a.75.75 0 000 1.5h3.19l-2.22 2.22a.75.75 0 101.06 1.06L14.25 11.09V15a.75.75 0 001.5 0V6z" />
</svg> 